# xmcd CD database file generated by Grip 2.96
# 
# Track frame offsets:
#       150
#       13525
#       27086
#       37634
#       52595
#       65602
#       78055
#       89510
#       107187
#       119481
#       131395
#       146563
#       158790
# 
# Disc length: 2333 seconds
# 
# Revision: 0
# Processed by: cddbd v1.4PL0 Copyright (c) Steve Scherf et al.
# Submitted via: Grip 2.96
# 
DISCID=97091b0d
DTITLE=Marty Jones and the Pork Boilin' Poor Boys - Full Boar
DYEAR=1900
DGENRE=
TTITLE0=Drivin' into Lincoln
TTITLE1=Next Time You See Me (I'll be Dead)
TTITLE2=Mighty Fine
TTITLE3=Blue, Sad, Cryin'
TTITLE4=Falling Back to Pieces
TTITLE5=You Kissed Me on the Mouth
TTITLE6=Goin' into Town
TTITLE7=Now We Barely Pass for a Couple
TTITLE8=I Got Over You (When You Got Under Him)
TTITLE9=Every Kind of Music But Country
TTITLE10=Match Made in Milwaukee
TTITLE11=Sweet Emotion
TTITLE12=Drinkin' in Every Bar in Town
EXTD=
EXTT0=
EXTT1=
EXTT2=
EXTT3=
EXTT4=
EXTT5=
EXTT6=
EXTT7=
EXTT8=
EXTT9=
EXTT10=
EXTT11=
EXTT12=
PLAYORDER=
